<mxfile host="Electron" modified="2021-01-21T08:57:59.048Z" agent="5.0 (X11; Linux x86_64) AppleWebKit/537.36 (KHTML, like Gecko) draw.io/13.3.9 Chrome/83.0.4103.119 Electron/9.0.5 Safari/537.36" etag="d7aEHVqIFN4UcqHh52Jz" compressed="false" version="13.3.9" type="device">
  <diagram id="c0ZeBgABp90McQPTNk9U" name="Page-1">
    <mxGraphModel dx="788" dy="478" grid="1" gridSize="10" guides="0" tooltips="1" connect="1" arrows="1" fold="1" page="1" pageScale="1" pageWidth="850" pageHeight="1100" math="0" shadow="0">
      <root>
        <mxCell id="0" />
        <mxCell id="1" parent="0" />
        <mxCell id="1Jll1pPLQQbyoTTkVG7x-44" value="exec loop" style="endArrow=classic;html=1;fillColor=#dae8fc;strokeColor=#6c8ebf;strokeWidth=2;dashed=1;dashPattern=1 1;" edge="1" parent="1" source="1Jll1pPLQQbyoTTkVG7x-30" target="1Jll1pPLQQbyoTTkVG7x-14">
          <mxGeometry x="0.6429" width="50" height="50" relative="1" as="geometry">
            <mxPoint x="330" y="320" as="sourcePoint" />
            <mxPoint x="380" y="270" as="targetPoint" />
            <Array as="points">
              <mxPoint x="370" y="220" />
              <mxPoint x="430" y="220" />
              <mxPoint x="430" y="90" />
              <mxPoint x="370" y="90" />
            </Array>
            <mxPoint as="offset" />
          </mxGeometry>
        </mxCell>
        <mxCell id="1Jll1pPLQQbyoTTkVG7x-45" value="" style="endArrow=classic;html=1;fillColor=#dae8fc;strokeColor=#6c8ebf;strokeWidth=2;dashed=1;dashPattern=1 1;" edge="1" parent="1" source="1Jll1pPLQQbyoTTkVG7x-20" target="1Jll1pPLQQbyoTTkVG7x-30">
          <mxGeometry width="50" height="50" relative="1" as="geometry">
            <mxPoint x="250" y="290" as="sourcePoint" />
            <mxPoint x="300" y="240" as="targetPoint" />
          </mxGeometry>
        </mxCell>
        <mxCell id="1Jll1pPLQQbyoTTkVG7x-46" value="" style="endArrow=classic;html=1;fillColor=#dae8fc;strokeColor=#6c8ebf;strokeWidth=2;dashed=1;dashPattern=1 1;" edge="1" parent="1" source="1Jll1pPLQQbyoTTkVG7x-14" target="1Jll1pPLQQbyoTTkVG7x-20">
          <mxGeometry width="50" height="50" relative="1" as="geometry">
            <mxPoint x="180" y="260" as="sourcePoint" />
            <mxPoint x="230" y="210" as="targetPoint" />
          </mxGeometry>
        </mxCell>
        <mxCell id="1Jll1pPLQQbyoTTkVG7x-1" value="Arch Description" style="rounded=0;whiteSpace=wrap;html=1;sketch=0;" vertex="1" parent="1">
          <mxGeometry x="80" y="110" width="100" height="20" as="geometry" />
        </mxCell>
        <mxCell id="1Jll1pPLQQbyoTTkVG7x-2" value="Inst Description" style="rounded=0;whiteSpace=wrap;html=1;sketch=0;" vertex="1" parent="1">
          <mxGeometry x="80" y="190" width="100" height="20" as="geometry" />
        </mxCell>
        <mxCell id="1Jll1pPLQQbyoTTkVG7x-3" value="Intermediate SSA" style="rounded=0;whiteSpace=wrap;html=1;" vertex="1" parent="1">
          <mxGeometry x="220" y="150" width="100" height="20" as="geometry" />
        </mxCell>
        <mxCell id="1Jll1pPLQQbyoTTkVG7x-14" value="Decoder" style="rounded=1;whiteSpace=wrap;html=1;fillColor=#dae8fc;strokeColor=#6c8ebf;" vertex="1" parent="1">
          <mxGeometry x="340" y="110" width="60" height="20" as="geometry" />
        </mxCell>
        <mxCell id="1Jll1pPLQQbyoTTkVG7x-17" value="" style="endArrow=classic;html=1;exitX=1;exitY=0.5;exitDx=0;exitDy=0;" edge="1" parent="1" source="1Jll1pPLQQbyoTTkVG7x-1" target="1Jll1pPLQQbyoTTkVG7x-14">
          <mxGeometry width="50" height="50" relative="1" as="geometry">
            <mxPoint x="150" y="70" as="sourcePoint" />
            <mxPoint x="200" y="20" as="targetPoint" />
            <Array as="points" />
          </mxGeometry>
        </mxCell>
        <mxCell id="1Jll1pPLQQbyoTTkVG7x-18" value="" style="endArrow=classic;html=1;" edge="1" parent="1" source="1Jll1pPLQQbyoTTkVG7x-1" target="1Jll1pPLQQbyoTTkVG7x-3">
          <mxGeometry width="50" height="50" relative="1" as="geometry">
            <mxPoint x="120" y="210" as="sourcePoint" />
            <mxPoint x="170" y="160" as="targetPoint" />
            <Array as="points">
              <mxPoint x="200" y="120" />
              <mxPoint x="200" y="160" />
            </Array>
          </mxGeometry>
        </mxCell>
        <mxCell id="1Jll1pPLQQbyoTTkVG7x-19" value="" style="endArrow=classic;html=1;" edge="1" parent="1" source="1Jll1pPLQQbyoTTkVG7x-2" target="1Jll1pPLQQbyoTTkVG7x-3">
          <mxGeometry width="50" height="50" relative="1" as="geometry">
            <mxPoint x="230" y="300" as="sourcePoint" />
            <mxPoint x="280" y="250" as="targetPoint" />
            <Array as="points">
              <mxPoint x="200" y="200" />
              <mxPoint x="200" y="160" />
            </Array>
          </mxGeometry>
        </mxCell>
        <mxCell id="1Jll1pPLQQbyoTTkVG7x-20" value="&lt;span&gt;Generator&lt;/span&gt;" style="rounded=1;whiteSpace=wrap;html=1;fillColor=#dae8fc;strokeColor=#6c8ebf;" vertex="1" parent="1">
          <mxGeometry x="340" y="150" width="60" height="20" as="geometry" />
        </mxCell>
        <mxCell id="1Jll1pPLQQbyoTTkVG7x-21" value="" style="endArrow=classic;html=1;" edge="1" parent="1" source="1Jll1pPLQQbyoTTkVG7x-20" target="1Jll1pPLQQbyoTTkVG7x-24">
          <mxGeometry width="50" height="50" relative="1" as="geometry">
            <mxPoint x="550" y="200" as="sourcePoint" />
            <mxPoint x="520" y="170" as="targetPoint" />
          </mxGeometry>
        </mxCell>
        <mxCell id="1Jll1pPLQQbyoTTkVG7x-24" value="&lt;span&gt;Assembly&lt;br&gt;&lt;/span&gt;" style="rounded=0;whiteSpace=wrap;html=1;" vertex="1" parent="1">
          <mxGeometry x="420" y="150" width="80" height="20" as="geometry" />
        </mxCell>
        <mxCell id="1Jll1pPLQQbyoTTkVG7x-30" value="&lt;span&gt;Machine Code&lt;/span&gt;" style="rounded=1;whiteSpace=wrap;html=1;fillColor=#dae8fc;strokeColor=#6c8ebf;" vertex="1" parent="1">
          <mxGeometry x="330" y="190" width="80" height="20" as="geometry" />
        </mxCell>
        <mxCell id="1Jll1pPLQQbyoTTkVG7x-32" value="assemble" style="endArrow=classic;html=1;" edge="1" parent="1" source="1Jll1pPLQQbyoTTkVG7x-24" target="1Jll1pPLQQbyoTTkVG7x-30">
          <mxGeometry x="0.3333" width="50" height="50" relative="1" as="geometry">
            <mxPoint x="500" y="270.00000000000006" as="sourcePoint" />
            <mxPoint x="460" y="380" as="targetPoint" />
            <Array as="points">
              <mxPoint x="510" y="160" />
              <mxPoint x="510" y="200" />
            </Array>
            <mxPoint as="offset" />
          </mxGeometry>
        </mxCell>
        <mxCell id="1Jll1pPLQQbyoTTkVG7x-34" value="&lt;font color=&quot;#999999&quot;&gt;Fig. 4&amp;amp;6&lt;/font&gt;" style="text;html=1;align=left;verticalAlign=middle;resizable=0;points=[];autosize=1;" vertex="1" parent="1">
          <mxGeometry x="220" y="130" width="60" height="20" as="geometry" />
        </mxCell>
        <mxCell id="1Jll1pPLQQbyoTTkVG7x-35" value="&lt;font color=&quot;#999999&quot;&gt;Fig. 7&lt;/font&gt;" style="text;html=1;align=left;verticalAlign=middle;resizable=0;points=[];autosize=1;" vertex="1" parent="1">
          <mxGeometry x="340" y="130" width="50" height="20" as="geometry" />
        </mxCell>
        <mxCell id="1Jll1pPLQQbyoTTkVG7x-36" value="&lt;font color=&quot;#999999&quot;&gt;Fig. 3,&amp;nbsp;&lt;/font&gt;&lt;span style=&quot;color: rgb(153 , 153 , 153)&quot;&gt;C-like&lt;/span&gt;" style="text;html=1;align=left;verticalAlign=middle;resizable=0;points=[];autosize=1;" vertex="1" parent="1">
          <mxGeometry x="80" y="170" width="80" height="20" as="geometry" />
        </mxCell>
        <mxCell id="1Jll1pPLQQbyoTTkVG7x-38" value="optimize" style="endArrow=classic;html=1;" edge="1" parent="1">
          <mxGeometry width="50" height="50" relative="1" as="geometry">
            <mxPoint x="240" y="170" as="sourcePoint" />
            <mxPoint x="300" y="170" as="targetPoint" />
            <Array as="points">
              <mxPoint x="240" y="190" />
              <mxPoint x="300" y="190" />
            </Array>
          </mxGeometry>
        </mxCell>
        <mxCell id="1Jll1pPLQQbyoTTkVG7x-40" value="" style="endArrow=classic;html=1;" edge="1" parent="1" source="1Jll1pPLQQbyoTTkVG7x-3" target="1Jll1pPLQQbyoTTkVG7x-20">
          <mxGeometry width="50" height="50" relative="1" as="geometry">
            <mxPoint x="270" y="280" as="sourcePoint" />
            <mxPoint x="320" y="230" as="targetPoint" />
          </mxGeometry>
        </mxCell>
        <mxCell id="1Jll1pPLQQbyoTTkVG7x-41" value="&lt;span style=&quot;color: rgb(153 , 153 , 153)&quot;&gt;Fig. 10&lt;/span&gt;&lt;span style=&quot;color: rgb(153 , 153 , 153)&quot;&gt;&lt;br&gt;&lt;/span&gt;" style="text;html=1;align=left;verticalAlign=middle;resizable=0;points=[];autosize=1;" vertex="1" parent="1">
          <mxGeometry x="420" y="130" width="50" height="20" as="geometry" />
        </mxCell>
        <mxCell id="1Jll1pPLQQbyoTTkVG7x-42" value="reg alloc" style="endArrow=classic;html=1;" edge="1" parent="1">
          <mxGeometry width="50" height="50" relative="1" as="geometry">
            <mxPoint x="430" y="170" as="sourcePoint" />
            <mxPoint x="490" y="170" as="targetPoint" />
            <Array as="points">
              <mxPoint x="430" y="190" />
              <mxPoint x="490" y="190" />
            </Array>
          </mxGeometry>
        </mxCell>
        <mxCell id="1Jll1pPLQQbyoTTkVG7x-43" value="&lt;span&gt;&lt;font color=&quot;#999999&quot;&gt;modified ArchC&lt;/font&gt;&lt;/span&gt;" style="text;html=1;align=left;verticalAlign=middle;resizable=0;points=[];autosize=1;" vertex="1" parent="1">
          <mxGeometry x="80" y="90" width="100" height="20" as="geometry" />
        </mxCell>
      </root>
    </mxGraphModel>
  </diagram>
</mxfile>
